<?xml version="1.0" encoding="UTF-8" standalone="no"?>
<!DOCTYPE svg PUBLIC "-//W3C//DTD SVG 1.1//EN" "http://www.w3.org/Graphics/SVG/1.1/DTD/svg11.dtd">
<svg width="100%" height="100%" viewBox="0 0 400 400" version="1.1" xmlns="http://www.w3.org/2000/svg" xmlns:xlink="http://www.w3.org/1999/xlink" xml:space="preserve" xmlns:serif="http://www.serif.com/" style="fill-rule:evenodd;clip-rule:evenodd;stroke-linecap:round;stroke-linejoin:round;stroke-miterlimit:1.5;">
    <g id="Artboard1" transform="matrix(1.439,0,0,1.49328,-71.801,-89.5965)">
        <rect x="49.896" y="60" width="277.971" height="267.867" style="fill:none;"/>
        <g transform="matrix(0.694928,0,0,0.669669,91.5921,148.485)">
            <circle cx="140" cy="120" r="127.867" style="fill:rgb(0,187,255);"/>
        </g>
        <g transform="matrix(0.484301,0,0,0.46863,63.5618,117.705)">
            <ellipse cx="172.671" cy="180" rx="20.083" ry="20" style="fill:rgb(7,6,0);"/>
        </g>
        <g transform="matrix(0.484301,0,0,0.46863,146.953,117.705)">
            <ellipse cx="172.671" cy="180" rx="20.083" ry="20" style="fill:rgb(7,6,0);"/>
        </g>
        <g transform="matrix(0.694928,0,0,0.669669,49.8965,94.9115)">
            <path d="M111.58,247.867C111.58,247.867 145.263,265.866 160,271.222C172.83,275.884 200,280 200,280C200,280 227.667,277.395 240,273.706C251.977,270.124 273.996,257.867 273.996,257.867" style="fill:none;stroke:black;stroke-width:8.74px;"/>
        </g>
        <g transform="matrix(0.691683,-0.0646398,0.0670779,0.666542,-173.743,46.8592)">
            <path d="M414.096,220C414.096,220 428.833,175.207 430,161C430.948,149.462 449.944,139.997 460,135.454C481.051,125.946 512,132 512,132C512,132 539.169,135.231 550.459,140C569.676,148.117 576.781,156 583,166C589.219,176 590,205.558 590,205.558L594.813,214.83C594.813,214.83 604.284,252.259 571.409,249.876C534.636,247.211 490.039,249.621 461.923,239.259C441.418,231.701 414.096,220 414.096,220Z" style="fill:rgb(118,0,183);stroke:black;stroke-width:1px;"/>
        </g>
        <g transform="matrix(0.691683,-0.0646398,0.0670779,0.666542,-173.743,46.8592)">
            <g id="Layer1">
                <path d="M413.558,220C412.802,223.251 410.442,227.878 413.019,230C419.092,235 440.014,248.206 450,250C473.832,254.281 535.811,258.39 560,256.723C568.832,256.114 582.589,252.395 590,247.684C594.35,244.918 596.168,242.935 596.168,242.935C596.168,242.935 595.528,241.489 594.5,236C594.051,233.602 594.266,215.662 594,214C593.62,211.626 591.232,207.44 591.232,207.44C591.232,207.44 588.442,218.99 580,220C566.07,221.667 525.843,221.667 506.421,220C488.744,218.483 464.403,215.405 450,212.072C439.73,209.695 420,200 420,200C420,200 414.722,215 413.558,220Z" style="fill:rgb(255,0,189);stroke:black;stroke-width:1px;"/>
            </g>
        </g>
    </g>
</svg>
