<?xml version="1.0" encoding="UTF-8" standalone="no"?>
<!DOCTYPE svg PUBLIC "-//W3C//DTD SVG 1.1//EN" "http://www.w3.org/Graphics/SVG/1.1/DTD/svg11.dtd">
<svg width="100%" height="100%" viewBox="0 0 400 400" version="1.1" xmlns="http://www.w3.org/2000/svg" xmlns:xlink="http://www.w3.org/1999/xlink" xml:space="preserve" xmlns:serif="http://www.serif.com/" style="fill-rule:evenodd;clip-rule:evenodd;stroke-linecap:round;stroke-linejoin:round;stroke-miterlimit:1.5;">
    <g id="Artboard1" transform="matrix(1.439,0,0,1.49328,-71.801,-89.5965)">
        <rect x="49.896" y="60" width="277.971" height="267.867" style="fill:none;"/>
        <g transform="matrix(0.694928,0,0,0.669669,91.5921,148.485)">
            <circle cx="140" cy="120" r="127.867" style="fill:rgb(255,222,0);"/>
        </g>
        <g transform="matrix(0.484301,0,0,0.46863,63.5618,117.705)">
            <ellipse cx="172.671" cy="180" rx="20.083" ry="20" style="fill:rgb(7,6,0);"/>
        </g>
        <g transform="matrix(0.484301,0,0,0.46863,146.953,117.705)">
            <ellipse cx="172.671" cy="180" rx="20.083" ry="20" style="fill:rgb(7,6,0);"/>
        </g>
        <g transform="matrix(0.694928,0,0,0.669669,49.8965,94.9115)">
            <path d="M126.004,232.298C126.004,232.298 147.667,263.271 160,271.222C171.473,278.618 200,280 200,280C200,280 228.83,281.284 240,273.706C251.353,266.004 268.116,233.789 268.116,233.789" style="fill:none;stroke:black;stroke-width:8.74px;"/>
        </g>
        <g transform="matrix(0.691683,-0.0646398,0.0670779,0.666542,-181.418,24.1364)">
            <path d="M414.096,220C414.096,220 428.833,175.207 430,161C430.948,149.462 449.944,139.997 460,135.454C481.051,125.946 512,132 512,132C512,132 539.169,135.231 550.459,140C569.676,148.117 576.781,156 583,166C589.219,176 590,205.558 590,205.558L594.813,214.83C594.813,214.83 643.212,225.808 657.41,236.669C671.608,247.531 684.917,262.32 678,279C665.883,308.217 642.154,309.716 620,314.559C593.667,320.316 550.874,317.382 518,315C481.226,312.335 436.116,284.363 408,274C387.495,266.442 363.046,259.292 349.306,252.822C340.385,248.622 320.198,238.459 325.561,235.183C334.942,229.452 363.244,231.531 378,229C389.651,227.002 414.096,220 414.096,220Z" style="fill:rgb(183,109,0);stroke:black;stroke-width:1px;"/>
        </g>
        <g transform="matrix(0.691683,-0.0646398,0.0670779,0.666542,-181.418,24.1364)">
            <g id="Layer1">
                <path d="M413.558,220C412.802,223.251 410.442,227.878 413.019,230C419.092,235 440.014,248.206 450,250C473.832,254.281 535.811,258.39 560,256.723C568.832,256.114 582.589,252.395 590,247.684C594.35,244.918 596.168,242.935 596.168,242.935C596.168,242.935 595.528,241.489 594.5,236C594.051,233.602 594.266,215.662 594,214C593.62,211.626 591.232,207.44 591.232,207.44C591.232,207.44 588.442,218.99 580,220C566.07,221.667 525.843,221.667 506.421,220C488.744,218.483 464.403,215.405 450,212.072C439.73,209.695 420,200 420,200C420,200 414.722,215 413.558,220Z" style="fill:rgb(255,33,0);fill-opacity:0.52;stroke:black;stroke-width:1px;"/>
            </g>
        </g>
    </g>
</svg>
