<?xml version="1.0" encoding="UTF-8" standalone="no"?>
<!DOCTYPE svg PUBLIC "-//W3C//DTD SVG 1.1//EN" "http://www.w3.org/Graphics/SVG/1.1/DTD/svg11.dtd">
<svg width="100%" height="100%" viewBox="0 0 257 258" version="1.1" xmlns="http://www.w3.org/2000/svg" xmlns:xlink="http://www.w3.org/1999/xlink" xml:space="preserve" xmlns:serif="http://www.serif.com/" style="fill-rule:evenodd;clip-rule:evenodd;stroke-linecap:round;stroke-linejoin:round;stroke-miterlimit:1.5;">
    <g id="Artboard1" transform="matrix(0.920978,0,0,0.961313,-45.9536,-57.6788)">
        <rect x="49.896" y="60" width="277.971" height="267.867" style="fill:none;"/>
        <clipPath id="_clip1">
            <rect x="49.896" y="60" width="277.971" height="267.867"/>
        </clipPath>
        <g clip-path="url(#_clip1)">
            <g transform="matrix(1.0858,0,0,1.04024,37.9898,70.0247)">
                <circle cx="140" cy="120" r="127.867" style="fill:rgb(255,222,0);"/>
            </g>
            <g transform="matrix(0.756704,0,0,0.727956,-5.80678,22.2122)">
                <ellipse cx="172.671" cy="180" rx="20.083" ry="20" style="fill:rgb(7,6,0);"/>
            </g>
            <g transform="matrix(0.756704,0,0,0.727956,124.489,22.2122)">
                <ellipse cx="172.671" cy="180" rx="20.083" ry="20" style="fill:rgb(7,6,0);"/>
            </g>
            <g transform="matrix(1.0858,0,0,1.04024,-27.1584,-13.1948)">
                <path d="M126.004,232.298C126.004,232.298 147.667,263.271 160,271.222C171.473,278.618 200,280 200,280C200,280 228.83,281.284 240,273.706C251.353,266.004 268.116,233.789 268.116,233.789" style="fill:none;stroke:black;stroke-width:8.74px;"/>
            </g>
        </g>
    </g>
</svg>
